PathFileType	4	(X/Y/Z)	/Users/chandansharma/Desktop/workspace/metashape/projects/dc-pose/DC-ROM/demo_Sports2D/demo_Sports2D_px_person00.trc
DataRate	CameraRate	NumFrames	NumMarkers	Units	OrigDataRate	OrigDataStartFrame	OrigNumFrames
30	30	8	22	m	30	0	28
Frame#	Time	Hip			RHip			RKnee			RAnkle			RBigToe			RSmallToe			RHeel			LHip			LKnee			LAnkle			LBigToe			LSmallToe			LHeel			Neck			Head			Nose			RShoulder			RElbow			RWrist			LShoulder			LElbow			LWrist		
		X1	Y1	Z1	X2	Y2	Z2	X3	Y3	Z3	X4	Y4	Z4	X5	Y5	Z5	X6	Y6	Z6	X7	Y7	Z7	X8	Y8	Z8	X9	Y9	Z9	X10	Y10	Z10	X11	Y11	Z11	X12	Y12	Z12	X13	Y13	Z13	X14	Y14	Z14	X15	Y15	Z15	X16	Y16	Z16	X17	Y17	Z17	X18	Y18	Z18	X19	Y19	Z19	X20	Y20	Z20	X21	Y21	Z21	X22	Y22	Z22
0	0.0	652.5057907278376	270.529313859797	0.0	631.3163244079805	271.775774898216	0.0	618.8514775367066	351.548415236846	0.0	622.5908720507376	428.8282572012735	0.0	615.1125726131986	451.2644896753684	0.0	607.6337571436196	447.5249190628792	0.0	627.5765568460572	438.80000733929774	0.0	674.9416676402783	273.0222059696565	0.0	681.174313352863	352.794856475623	0.0	676.1887092751728	430.0743473700819	0.0	671.2034049986321	452.51079175072886	0.0	686.1601503285221	450.0178290870458	0.0	673.6954941708275	441.29238185506813	0.0	652.5058096169425	132.17428085654768	0.0	647.5201501734308	76.08404247621895	0.0	650.0129901349351	108.4916474447892	0.0	617.6051765503614	158.34934804649836	0.0	606.387426753255	216.93233361070477	0.0	595.1693477451989	270.5291877272302	0.0	693.6385249852161	158.34945653517195	0.0	704.8567045721347	214.43960012269486	0.0	704.8564670134444	265.54353811633155	0.0
1	0.26436781609195403	652.2045333469972	271.50304241322	0.0	630.6997070925131	271.92235218482284	0.0	616.9871907022512	351.3785012177965	0.0	622.1076308101386	430.63178305048206	0.0	612.3715784605994	450.25214373515104	0.0	605.8832823104755	446.87974655213503	0.0	627.8935738981181	437.8444806747421	0.0	674.8186895030685	273.12869909889145	0.0	680.3551496977935	352.6136112571933	0.0	676.0093279847193	431.5441405770071	0.0	672.4298870856709	451.8240498302321	0.0	687.3540732840148	450.29020772617923	0.0	673.5726276617238	439.76177203416063	0.0	651.7773781577919	135.4787634381325	0.0	647.0915755128792	82.0806108701663	0.0	649.0030811867507	112.7081770911286	0.0	616.1339090518725	162.44134030258488	0.0	606.6665882377474	220.7147870006588	0.0	595.6025078368466	275.3474297484185	0.0	692.0300200836764	162.03434338255462	0.0	704.0499606026021	219.59772758680862	0.0	706.7893670696915	270.82570867007325	0.0
2	0.5287356321839081	651.9294797103603	273.6071161382871	0.0	630.1485627450669	274.0249571898004	0.0	615.2561523766423	351.85981940548766	0.0	622.2041999927796	431.64373145570056	0.0	611.1860427540271	450.08533837943565	0.0	604.4993211928245	446.957548333445	0.0	628.4514282784382	438.0090497907979	0.0	674.9427208630065	275.21840929682867	0.0	679.7763957756321	353.1942335168805	0.0	675.6274417726132	432.61803604061527	0.0	672.2351465965253	451.89380244638886	0.0	687.2847074911376	450.8455851188952	0.0	673.4766609202113	439.8805009112099	0.0	651.2212495871686	140.2156636838021	0.0	646.6692241556956	88.00148500493651	0.0	648.2035562863496	117.41733361588734	0.0	615.1290131452266	167.67525754388214	0.0	606.6897224632941	226.11167913760227	0.0	594.6439070985149	280.6806921780003	0.0	691.0248935941738	167.06731953092378	0.0	703.5197431249503	226.0751818949616	0.0	709.3409023316126	278.5167187991045	0.0
3	0.7931034482758621	651.6598103507039	277.1275599857166	0.0	629.575151804735	278.16598167241807	0.0	613.8382856441831	352.99265655233796	0.0	622.6079888349032	431.55239486609537	0.0	611.4733388402866	450.5422767359816	0.0	604.0146195830672	447.30661154350173	0.0	628.9452073000506	438.82153180922023	0.0	675.1379350396799	279.25434133624344	0.0	679.2736237189263	354.25593152066256	0.0	675.1841167440261	433.37482907066374	0.0	671.2052822252377	452.68481014828467	0.0	686.3898332690856	451.6116535829166	0.0	673.6602978623437	441.06109918049947	0.0	650.7039317652016	146.23459867588048	0.0	646.152095522543	93.45989633922214	0.0	647.6859056745091	122.81638492829325	0.0	614.6165070835902	173.7624952898832	0.0	605.7825686693106	232.72852482528765	0.0	591.1402159650241	286.70887867426546	0.0	690.5534515273757	173.4415201714363	0.0	703.6918810911487	233.32204387775255	0.0	713.7414770105459	288.1498269696643	0.0
4	1.0574712643678161	651.255577549346	281.1039747262808	0.0	628.8396044265478	282.39430444377535	0.0	613.1347966688213	354.53531129354883	0.0	622.7845782467031	431.05629908908793	0.0	611.6654531050631	450.7637330951723	0.0	604.2342531651019	447.1458325535939	0.0	629.004160521422	439.0218477983094	0.0	675.1275072242938	283.13924943597505	0.0	678.6295507184047	355.15195013119757	0.0	674.8375316976496	433.91618725431204	0.0	670.7039537411637	453.2487034464137	0.0	685.7486442217865	451.90252406614616	0.0	673.86613727751	441.6274709206739	0.0	650.1577882675264	152.04618273681518	0.0	645.71452641176	98.08136564776885	0.0	647.2951213574036	128.15116158944443	0.0	614.2172649835735	179.56023075201466	0.0	603.1609295921195	238.43524836354814	0.0	584.513043931069	292.13500796980037	0.0	690.2124627154581	180.08898504167962	0.0	705.1914857871787	239.38785685097758	0.0	720.8543595186903	296.3054095137127	0.0
5	1.3218390804597702	650.5946034480214	283.9602301420414	0.0	627.8235440619256	284.6783000318004	0.0	613.2798505554256	356.02074587926984	0.0	622.6887337626616	431.1342158953427	0.0	611.0808983818598	450.5827108392193	0.0	604.2795807503551	446.7042082711065	0.0	628.7968296633387	438.55609772486093	0.0	674.6494486144984	285.0321914280756	0.0	677.9059726927069	355.8810484924256	0.0	674.5731958234808	434.01245137410484	0.0	670.9496840368258	453.005529045413	0.0	685.6795344683024	451.3836070742564	0.0	673.5000536223639	441.19939278553136	0.0	649.7117182162681	156.3695484700549	0.0	645.5943236547839	101.50225429868581	0.0	646.7447250968696	132.07812398347917	0.0	613.4320730361369	183.7824258605058	0.0	598.4776705708446	241.22334637270615	0.0	575.2623662709435	294.2071260524201	0.0	689.8497727392976	185.4278679588145	0.0	708.3970289282221	242.52197541667056	0.0	730.3082743216332	299.27848719535757	0.0
6	1.5862068965517242	649.7482461501523	284.99106778726394	0.0	626.5288133844826	284.856116700143	0.0	613.7639609305925	356.8922012460115	0.0	622.5476219033986	431.6046952146235	0.0	610.9484948991116	450.7000675148943	0.0	604.0936513267128	446.83518722587974	0.0	628.8145902634616	438.5338386549331	0.0	673.4648286549294	285.2076557025749	0.0	677.3456920514435	356.7994474190198	0.0	674.4521011231856	433.59829571201686	0.0	671.1437901298975	452.64337240955183	0.0	685.8058696229007	450.79218699341374	0.0	672.7273622203022	440.8862672571673	0.0	649.4292052123914	158.54129238929863	0.0	645.5345939361341	102.72272303503937	0.0	645.8316493329693	133.62872998415315	0.0	612.1230853387542	185.12427611091655	0.0	592.2171342706838	240.15982265788713	0.0	564.5358800548875	290.39787339224665	0.0	689.632159556618	187.67069252607124	0.0	712.9375470940902	241.8521440557023	0.0	740.9706076273444	295.44334735422217	0.0
7	1.8505747126436782	648.8421780633412	284.53486888059143	0.0	625.2377171379921	283.8674879597367	0.0	614.0991600156754	357.05256385604036	0.0	622.4281059288385	431.57517337397803	0.0	612.0579808619849	451.28842038636043	0.0	604.3402915278947	447.5893316911294	0.0	629.1445772610232	439.2691914024717	0.0	671.8603904388867	284.6355963610157	0.0	677.148597103582	357.4948545627242	0.0	674.5422446328663	433.00536640073955	0.0	670.5992691477462	452.8244846143248	0.0	685.7309804923681	450.8903461865268	0.0	672.1785961091211	441.2826343771215	0.0	649.199133006713	157.39066271702438	0.0	645.1123817009504	100.31531116201214	0.0	644.6436896634352	131.8099788938654	0.0	610.6451204051049	182.6659276910713	0.0	585.4695287975109	234.68776749503633	0.0	553.1261590784251	279.8301902765028	0.0	689.5487771348571	185.47061079853256	0.0	717.8601685402821	236.76326713153617	0.0	751.5596052803982	285.0962405534458	0.0
